<?xml version="1.0" encoding="UTF-8"?><svg id="a" xmlns="http://www.w3.org/2000/svg" xmlns:xlink="http://www.w3.org/1999/xlink" viewBox="0 0 96 54"><defs><style>.d{fill:none;}.e{clip-path:url(#c);}.f{clip-path:url(#b);}</style><clipPath id="b"><rect class="d" y="0" width="96" height="54"/></clipPath><clipPath id="c"><rect class="d" y="0" width="96" height="54"/></clipPath></defs><g class="f"><g class="e"><path d="M54.17,5.47c.24,3.59,.58,7.08,.7,10.58,.12,3.48,.03,6.97,.03,10.52,1.49,.22,2.81,.41,4.12,.6,.47,.07,.94,.11,1.4,.17,.87,.11,1.78,.97,1.75,1.84-.01,.4-.28,.95-.6,1.15-3.28,2.01-5.58,4.88-7.42,8.19-.6,1.08-1.55,1.16-2.16,.09-.3-.53-.45-1.24-.41-1.85,.19-2.72,.48-5.43,.74-8.2-.9-.29-1.68-.53-2.45-.81-.44-.16-.91-.31-1.25-.6-.23-.2-.41-.66-.34-.95,.05-.19,.57-.37,.87-.36,.84,.04,1.68,.18,2.53,.28,.16,.02,.32,.03,.56,.06,.02-.37,.06-.72,.06-1.06-.1-4.31-.11-8.63-.37-12.93-.15-2.48-.7-4.94-1.07-7.4-.03-.21-.11-.41-.13-.62-.16-1.21,.63-1.87,1.71-1.33,1.39,.69,2.76,1.44,4.05,2.3,3.2,2.14,5.8,4.94,8.34,7.81,3.99,4.5,7.92,9.04,12.07,13.38,3.91,4.1,8.67,7,14.07,8.81,.29,.1,.59,.16,.88,.26,.88,.3,1.61,.19,2.11-.69,.09-.16,.25-.27,.51-.36l-.24,.78c.32,.27,.68,.5,.96,.81,.47,.51,.57,1.13,.31,1.78-.24,.61-.76,.97-1.38,.94-1.14-.05-2.31-.1-3.42-.38-6.84-1.71-12.33-5.48-16.64-11.03-2.67-3.44-5.34-6.9-8.14-10.24-2.87-3.44-5.84-6.79-9.3-9.67-.79-.66-1.64-1.25-2.47-1.87m.87,23.7c-.06,.92-.1,1.72-.16,2.66,.69-.74,1.28-1.36,1.91-2.03-.62-.22-1.14-.41-1.75-.63"/><path d="M43.73,26.18c1.05-.12,2.01-.27,2.96-.32,.35-.02,.71,.21,1.06,.32-.16,.36-.24,.81-.5,1.05-.29,.27-.74,.38-1.13,.52-.66,.24-1.34,.43-2,.69-.15,.06-.3,.35-.29,.53,.19,2.58,.36,5.17,.63,7.74,.07,.73-.02,1.35-.43,1.94-.69,.98-1.58,.94-2.14-.11-1.29-2.39-2.88-4.54-4.91-6.34-.67-.59-1.39-1.13-2.14-1.61-.62-.4-1.11-.8-.94-1.63,.16-.8,.94-1.53,1.75-1.64,1.52-.2,3.03-.4,4.55-.61,.23-.03,.46-.09,.75-.16,.11-7.01,.03-14.03,1.09-21.22-.91,.68-1.7,1.22-2.43,1.82-3.51,2.89-6.5,6.3-9.39,9.77-2.73,3.28-5.28,6.7-7.95,10.03-2.34,2.92-4.88,5.66-8.08,7.64-3.14,1.95-6.58,3.24-10.2,4.02-.52,.11-1.08,.08-1.62,.06-.89-.03-1.51-.47-1.69-1.14-.2-.72,.08-1.49,.75-1.99,.19-.14,.39-.25,.61-.39l-.36-.97,.1-.07c.18,.2,.39,.38,.52,.6,.49,.85,1.22,.99,2.06,.65,2.15-.88,4.36-1.66,6.43-2.71,4.63-2.35,8.33-5.89,11.75-9.73,3.84-4.31,7.57-8.72,11.45-12.99,2.56-2.83,5.54-5.18,8.99-6.87,.04-.02,.08-.05,.12-.07,.58-.27,1.2-.62,1.79-.15,.62,.49,.42,1.19,.27,1.84-.92,3.99-1.24,8.05-1.35,12.13-.08,2.85-.08,5.7-.11,8.55,0,.23,.02,.46,.04,.79m-2.76,2.98l-1.64,.62c.61,.59,1.2,1.16,1.79,1.73-.05-.72-.09-1.48-.15-2.36"/></g></g></svg>