<?xml version="1.0" encoding="UTF-8"?><svg xmlns="http://www.w3.org/2000/svg" viewBox="0 0 1901 734.62"><defs><style>.d{fill:#fff;}</style></defs><g id="a"/><g id="b"><g id="c"><g><path class="d" d="M1071.49,56.51c4.9,71.83,11.51,141.69,13.91,211.69,2.38,69.62,.52,139.39,.52,210.37,29.73,4.34,56.1,8.25,82.5,11.99,9.32,1.32,18.71,2.2,28.05,3.38,17.49,2.2,35.61,19.44,35.06,36.82-.25,7.98-5.57,19.09-12.08,23.09-65.51,40.23-111.63,97.6-148.3,163.71-11.95,21.54-30.93,23.27-43.23,1.88-6.06-10.54-9.01-24.84-8.14-37.06,3.87-54.39,9.63-108.64,14.82-164.03-18.05-5.9-33.7-10.62-49.05-16.18-8.71-3.15-18.14-6.25-24.94-12.06-4.66-3.98-8.19-13.28-6.83-18.9,.9-3.74,11.4-7.49,17.44-7.23,16.89,.73,33.69,3.56,50.53,5.54,3.23,.38,6.48,.65,11.29,1.12,.42-7.43,1.28-14.34,1.12-21.22-2.08-86.21-2.21-172.53-7.3-258.57-2.94-49.59-13.94-98.7-21.39-148.02-.63-4.18-2.12-8.23-2.69-12.42-3.29-24.15,12.52-37.35,34.3-26.51,27.75,13.81,55.16,28.84,80.93,46.03,64.1,42.74,115.91,98.85,166.71,156.15,79.72,89.93,158.5,180.84,241.49,267.69,78.29,81.92,173.4,140.04,281.33,176.15,5.79,1.94,11.81,3.21,17.6,5.17,17.58,5.96,32.26,3.78,42.23-13.79,1.78-3.13,4.95-5.47,10.17-7.14-1.59,5.24-3.17,10.49-4.75,15.7,6.46,5.34,13.55,10.05,19.17,16.11,9.48,10.21,11.4,22.66,6.29,35.54-4.83,12.17-15.26,19.43-27.52,18.9-22.87-1-46.26-2.03-68.31-7.54-136.8-34.18-246.55-109.56-332.79-220.63-53.48-68.88-106.85-137.92-162.75-204.81-57.42-68.7-116.84-135.9-186-193.44-15.84-13.18-32.84-24.97-49.37-37.46Zm17.39,473.95c-1.1,18.49-2.05,34.47-3.17,53.23,13.9-14.75,25.58-27.15,38.21-40.54-12.32-4.46-22.81-8.26-35.04-12.69Z"/><path class="d" d="M862.68,470.7c21.05-2.41,40.1-5.4,59.26-6.35,6.96-.35,14.16,4.17,21.25,6.47-3.2,7.18-4.77,16.1-10.05,21.08-5.74,5.4-14.8,7.53-22.66,10.38-13.24,4.8-26.88,8.56-39.9,13.87-2.98,1.21-6.06,7.08-5.81,10.57,3.71,51.64,7.29,103.31,12.54,154.8,1.49,14.65-.41,27.08-8.56,38.7-13.82,19.68-31.58,18.85-42.88-2.14-25.71-47.73-57.6-90.71-98.18-126.77-13.32-11.84-27.86-22.55-42.88-32.16-12.46-7.97-22.18-16.05-18.88-32.53,3.19-15.91,18.87-30.59,34.92-32.71,30.34-4,60.68-8.01,91.01-12.14,4.64-.63,9.19-1.89,14.97-3.12,2.18-140.27,.63-280.64,21.75-424.33-18.28,13.62-33.98,24.36-48.62,36.4-70.26,57.77-129.98,125.95-187.87,195.47-54.56,65.53-105.67,133.93-158.95,200.55-46.72,58.41-97.6,113.16-161.56,152.89-62.81,39.02-131.63,64.83-204.02,80.33-10.43,2.23-21.62,1.66-32.41,1.25-17.75-.68-30.12-9.49-33.86-22.87-4.03-14.4,1.62-29.72,14.95-39.81,3.71-2.81,7.85-5.06,12.28-7.88-2.48-6.6-4.87-13-7.27-19.4l2.04-1.36c3.54,4,7.85,7.55,10.47,12.08,9.88,17.08,24.42,19.79,41.12,12.99,43.07-17.53,87.18-33.14,128.52-54.15,92.61-47.08,166.67-117.78,235.03-194.54,76.8-86.23,151.49-174.35,229.07-259.86,51.26-56.51,110.8-103.56,179.86-137.46,.84-.41,1.63-.95,2.48-1.35,11.6-5.42,23.9-12.37,35.78-3.01,12.43,9.8,8.31,23.79,5.33,36.72-18.44,79.8-24.73,160.99-26.92,242.55-1.53,56.99-1.52,114.02-2.13,171.03-.05,4.62,.46,9.25,.81,15.8Zm-55.12,59.54c-13.11,4.98-23.38,8.89-32.8,12.47,12.23,11.84,23.97,23.19,35.8,34.63-.91-14.32-1.88-29.54-3-47.1Z"/></g></g></g></svg>