<?xml version="1.0" encoding="UTF-8"?><svg id="a" xmlns="http://www.w3.org/2000/svg" viewBox="0 0 1901 1017.09"><defs><style>.b{fill:#fff;}</style></defs><g><path class="b" d="M1071.49,56.51c4.9,71.83,11.51,141.69,13.91,211.69,2.38,69.62,.52,139.39,.52,210.37,29.73,4.34,56.1,8.25,82.5,11.99,9.32,1.32,18.71,2.2,28.05,3.38,17.49,2.2,35.61,19.44,35.06,36.82-.25,7.98-5.57,19.09-12.08,23.09-65.51,40.23-111.63,97.6-148.3,163.71-11.95,21.54-30.93,23.27-43.23,1.88-6.06-10.54-9.01-24.84-8.14-37.06,3.87-54.39,9.63-108.64,14.82-164.03-18.05-5.9-33.7-10.62-49.05-16.18-8.71-3.15-18.14-6.25-24.94-12.06-4.66-3.98-8.19-13.28-6.83-18.9,.9-3.74,11.4-7.49,17.44-7.23,16.89,.73,33.69,3.56,50.53,5.54,3.23,.38,6.48,.65,11.29,1.12,.42-7.43,1.28-14.34,1.12-21.22-2.08-86.21-2.21-172.53-7.3-258.57-2.94-49.59-13.94-98.7-21.39-148.02-.63-4.18-2.12-8.23-2.69-12.42-3.29-24.15,12.52-37.35,34.3-26.51,27.75,13.81,55.16,28.84,80.93,46.03,64.1,42.74,115.91,98.85,166.71,156.15,79.72,89.93,158.5,180.84,241.49,267.69,78.29,81.92,173.4,140.04,281.33,176.15,5.79,1.94,11.81,3.21,17.6,5.17,17.58,5.96,32.26,3.78,42.23-13.79,1.78-3.13,4.95-5.47,10.17-7.14-1.59,5.24-3.17,10.49-4.75,15.7,6.46,5.34,13.55,10.05,19.17,16.11,9.48,10.21,11.4,22.66,6.29,35.54-4.83,12.17-15.26,19.43-27.52,18.9-22.87-1-46.26-2.03-68.31-7.54-136.8-34.18-246.55-109.56-332.79-220.63-53.48-68.88-106.85-137.92-162.75-204.81-57.42-68.7-116.84-135.9-186-193.44-15.84-13.18-32.84-24.97-49.37-37.46Zm17.39,473.95c-1.1,18.49-2.05,34.47-3.17,53.23,13.9-14.75,25.58-27.15,38.21-40.54-12.32-4.46-22.81-8.26-35.04-12.69Z"/><path class="b" d="M862.68,470.7c21.05-2.41,40.1-5.4,59.26-6.35,6.96-.35,14.16,4.17,21.25,6.47-3.2,7.18-4.77,16.1-10.05,21.08-5.74,5.4-14.8,7.53-22.66,10.38-13.24,4.8-26.88,8.56-39.9,13.87-2.98,1.21-6.06,7.08-5.81,10.57,3.71,51.64,7.29,103.31,12.54,154.8,1.49,14.65-.41,27.08-8.56,38.7-13.82,19.68-31.58,18.85-42.88-2.14-25.71-47.73-57.6-90.71-98.18-126.77-13.32-11.84-27.86-22.55-42.88-32.16-12.46-7.97-22.18-16.05-18.88-32.53,3.19-15.91,18.87-30.59,34.92-32.71,30.34-4,60.68-8.01,91.01-12.14,4.64-.63,9.19-1.89,14.97-3.12,2.18-140.27,.63-280.64,21.75-424.33-18.28,13.62-33.98,24.36-48.62,36.4-70.26,57.77-129.98,125.95-187.87,195.47-54.56,65.53-105.67,133.93-158.95,200.55-46.72,58.41-97.6,113.16-161.56,152.89-62.81,39.02-131.63,64.83-204.02,80.33-10.43,2.23-21.62,1.66-32.41,1.25-17.75-.68-30.12-9.49-33.86-22.87-4.03-14.4,1.62-29.72,14.95-39.81,3.71-2.81,7.85-5.06,12.28-7.88-2.48-6.6-4.87-13-7.27-19.4l2.04-1.36c3.54,4,7.85,7.55,10.47,12.08,9.88,17.08,24.42,19.79,41.12,12.99,43.07-17.53,87.18-33.14,128.52-54.15,92.61-47.08,166.67-117.78,235.03-194.54,76.8-86.23,151.49-174.35,229.07-259.86,51.26-56.51,110.8-103.56,179.86-137.46,.84-.41,1.63-.95,2.48-1.35,11.6-5.42,23.9-12.37,35.78-3.01,12.43,9.8,8.31,23.79,5.33,36.72-18.44,79.8-24.73,160.99-26.92,242.55-1.53,56.99-1.52,114.02-2.13,171.03-.05,4.62,.46,9.25,.81,15.8Zm-55.12,59.54c-13.11,4.98-23.38,8.89-32.8,12.47,12.23,11.84,23.97,23.19,35.8,34.63-.91-14.32-1.88-29.54-3-47.1Z"/></g><g><path class="b" d="M1536.81,931.25c.73,17.1-12.63,32.53-35.21,40.57-7.33,2.61-15.35,6.33-22.52-1.77-1.65,.71-3.67,1.58-6.68,2.87-.52-11.44-1-22.14-1.49-32.98-8.63-1.34-18.1-2.29-27.27-4.46-3.76-.89-6.9-4.38-10.33-6.69,2.51-3.68,4.25-9.33,7.66-10.65,9.8-3.78,20.28-5.81,30.5-8.49,.87-.23,1.81-.2,2.56-.28,4.33-6.69-.58-16.43,8.62-23.11v22.43c11.15,2.56,22.46,3.31,32.1,7.73,23.63,10.82,42-.57,59.3-13.13,15.09-10.96,14.01-28.73-.26-41.09-12.63-10.93-27.92-15.58-44.01-17.5-40.2-4.8-79.19,1.12-117.02,14.94-6.88,2.51-13.44,6.37-19.5,10.54-7.45,5.13-8.08,10.07-5.91,18.58,.63,2.49-1.54,6.34-3.52,8.63-1.51,1.74-5.71,3.43-6.99,2.57-1.97-1.32-3.3-4.8-3.42-7.43-.48-11.12,5.53-19.37,13.26-26.43,15.37-14.03,34.25-21.08,54.01-25.96,31.52-7.78,63.4-12.1,95.95-8.35,14.45,1.67,28.28,5.32,40.81,12.96,21.11,12.88,25.39,33.11,11.35,53.43-10.36,14.98-25.33,23.5-41.93,29.69-3.24,1.21-6.56,2.21-10.06,3.39Zm-43.74,30.8c12.22-.36,21.86-4.79,29.52-12.93,1.62-1.72,1.42-6.22,.48-8.89-.72-2.04-4.04-4.68-6.01-4.53-12.37,.96-24.69,2.63-36.75,4.04v21.83c4.15-3,7.77-5.62,12.75-9.23v9.72Zm-19.8-36.67l.11-2.93h-15.6c-.02,.54-.03,1.08-.05,1.62,5.18,.44,10.36,.87,15.54,1.31Z"/><path class="b" d="M445.93,923.88c7.09-.55,12.84-1.55,18.55-1.3,8.78,.37,3.73,9.81,8.61,13.98,2.02-1.64,3.98-3.44,6.15-4.93,3.21-2.19,6.35-4.77,9.93-6.07,4.13-1.5,7.2-.34,8.54,4.99,.89,3.54,3.61,8.48,6.47,9.27,5.48,1.5,11.7,1.81,16.46-3.85,7.85-9.33,20.64-11.3,34.5-5.93-.3-6.38-.73-12.67-.87-18.97-.6-26.07,4.06-51.21,15.71-74.56,4.26-8.55,10.99-15.93,16.93-23.57,3.7-4.76,8.79-5.36,14.47-3.48,6.27,2.07,9.43,6.87,8.82,12.68-1.58,14.89-2.56,30.13-6.66,44.4-7.29,25.38-16.21,50.4-35.37,70.85,15.51,17.25,32.53,7.84,51.59,3.59-2.26,2.96-3.19,5.47-4.84,6.11-18.66,7.25-37.56,6.83-56.65,1.5-3.55-.99-7.51-1.11-11.21-.79-5.74,.5-11.4,1.9-17.14,2.53-1.96,.22-4.83-.03-5.94-1.27-5-5.61-10.94-3.41-17.02-3.48-6.77-.08-13.47-2.62-20.27-3.6-3.35-.48-6.91-.23-10.27,.31-4.25,.69-8.35,2.58-12.6,2.89-4.31,.31-7.88-1.96-7.88-6.87,0-5.57-2.1-9.21-7.55-10.88-.65-.2-1-1.37-2.47-3.54Zm119.95,1l1.78,.26c1.35-1.83,2.76-3.61,4.04-5.49,15.06-22.06,22.84-46.92,27.32-72.88,1.44-8.34,1.32-17.01,1.27-25.53-.01-2.29-2.39-4.57-3.68-6.86-1.98,1.31-4.56,2.19-5.83,4-3.44,4.91-6.92,9.94-9.31,15.39-11.94,27.15-16.16,55.87-16.45,85.3-.02,1.93,.57,3.87,.87,5.81Zm-18.5,14.73c-3.44-2.97-5.74-4.95-8.03-6.93-1.88,2.24-3.76,4.47-5.65,6.71,2.11,1.74,4.06,4.52,6.38,4.87,1.82,.27,4.09-2.47,7.3-4.66Z"/><path class="b" d="M209.25,924.52c6.04-.41,12.14-.82,18.25-1.23,.21,.79,.43,1.58,.64,2.37-6.26,2.03-12.51,4.05-19.8,6.41,1.1,10.73,2.52,21.48,3.1,32.28,.17,3.1-2.08,6.32-3.22,9.49-2.52-1.57-5.8-2.57-7.43-4.79-8.65-11.78-18.99-21.5-31.74-28.76-2.05-1.17-3.27-3.8-4.87-5.75,2.5-1.76,4.81-4.59,7.54-5.09,8.61-1.58,17.38-2.29,25.71-3.3,1.63-29.6,3.23-58.63,4.9-88.82-9.11,6.36-19.21,11.87-27.42,19.43-21.99,20.26-43.98,40.63-64.46,62.37-24.48,25.98-52.75,44.37-88.03,51.21-4.97,.96-10.19,1.61-15.17,1.13-2.24-.22-4.18-3.57-6.26-5.5,2.48-1.58,4.78-4.01,7.48-4.57,6.22-1.31,12.87-.91,18.94-2.64,34.16-9.72,61.99-29.86,87.38-53.91,16-15.16,31.43-31.06,48.55-44.85,13.22-10.65,28.59-18.68,43.21-27.52,2.19-1.33,5.55-.74,8.37-1.05-.07,2.67,.31,5.44-.3,7.98-6.63,27.58-6.69,55.61-6.03,83.7,0,.42,.38,.82,.65,1.39Zm-10.83,8.77c-4.66,1.36-8.47,2.48-13.08,3.83,4.78,4.24,8.95,7.92,14.08,12.47-.36-5.81-.64-10.46-1-16.3Z"/><path class="b" d="M952.8,925.97c0-14.76-.5-29.34,.14-43.87,.64-14.54,2.43-29.03,3.82-44.7-6.75,4.29-13.54,8.04-19.71,12.63-27.34,20.3-51.08,44.5-73.8,69.67-23.79,26.35-52.47,43.99-87.53,50.69-4.97,.95-10.18,1.52-15.17,1.1-2.16-.18-4.06-3.33-6.08-5.13,2.39-1.74,4.58-4.47,7.22-5.03,6.21-1.32,12.87-.75,18.93-2.45,34.46-9.68,62.39-30.07,88.02-54.22,17.9-16.87,35.47-34.19,54.46-49.77,11.14-9.14,24.71-15.38,37.37-22.59,2.12-1.21,5.2-.76,7.83-1.07,.05,2.65,.69,5.45,.06,7.93-7.07,27.98-6.68,56.44-6.39,85.43,6.66-.49,12.78-.94,18.9-1.38,.24,.81,.48,1.62,.73,2.43-6.18,2.03-12.36,4.05-19.6,6.43,1.07,10.68,2.46,21.44,3.04,32.25,.16,3.11-2.04,6.34-3.16,9.51-2.52-1.55-5.78-2.54-7.42-4.74-8.73-11.69-18.97-21.54-31.75-28.77-2.06-1.17-3.32-3.75-4.96-5.67,2.48-1.79,4.77-4.67,7.49-5.17,8.61-1.59,17.39-2.29,27.59-3.51Zm.66,24.02c-.7-6.59-1.21-11.33-1.78-16.65-4.24,1.24-8.05,2.36-12.79,3.75,4.95,4.39,9.14,8.09,14.57,12.89Z"/><path class="b" d="M1345.05,935.73c-1.37,1.32-2.52,3.14-4.15,3.84-2.74,1.17-5.74,1.94-8.7,2.33-12.42,1.63-24.48,3.79-35.77,10.1-7.79,4.35-16.67,5.79-24.91-.72-1.21-.96-3.94-.21-5.92,.04-18.72,2.39-38.81-6.5-43.47-26.97-1.39-6.09-3.74-12.09-4.24-18.24-2.89-36.08,4.16-69.58,27.81-98.12,9.56-11.54,16.92-14.2,25.51-10,11.22,5.48,8.88,15.84,7.58,25.05-4.89,34.89-19.62,65.51-42.11,92.39-3.52,4.21-3.69,7.56-1.53,11.82,4.86,9.55,11.73,16.75,22.91,18.28,5.77,.79,10.7,.76,14.14-6.21,4.6-9.32,23.72-14.52,33.02-10.31,.63,.29,1.44,.52,1.79,1.03,8.81,12.99,20.67,7.69,32.02,5.33,1.55-.32,3.05-.87,4.58-1.31,.48,.56,.97,1.12,1.45,1.68Zm-115.64-27.48c.73,.25,1.46,.5,2.19,.75,1.75-2.01,3.6-3.95,5.25-6.04,15.3-19.34,23.87-41.77,28.95-65.51,2.01-9.39,2-19.25,2.35-28.91,.07-2.03-1.94-5.26-3.71-5.89-1.65-.58-5.13,.96-6.31,2.63-5.33,7.49-11.25,14.87-14.91,23.19-8.35,19-13,39.1-13.76,59.95-.24,6.6-.04,13.22-.04,19.84Zm70.26,36.9c-.13-1.04-.26-2.08-.4-3.12-3.2-1.7-6.34-3.54-9.64-5.04-1.48-.67-4.25-1.4-4.75-.78-1.28,1.61-2.78,4.58-2.09,5.9,1.33,2.54,3.98,5.84,6.33,6.04,3.4,.29,7.02-1.88,10.54-3Z"/><path class="b" d="M304.47,940.87c9.32,7.27,19.39,6.5,29.76,3.85,7.29-1.87,11.99-5.06,11.98-13.97-.01-8.48,2.04-16.99,3.39-25.45,.32-2,.94-4.43,2.32-5.67,2.3-2.07,5.32-3.33,8.03-4.94,.27,2.69,.98,5.42,.73,8.06-1.61,17.27-3.43,34.52-5.37,53.63,7.09-2.26,12.39-4.17,17.82-5.58,2.11-.55,4.52,.02,6.79,.08-1.25,2.28-1.96,5.78-3.84,6.6-5.89,2.57-12.23,4.13-19.97,6.58,1.21,11.06,2.52,22.69,3.75,34.33,.42,3.91,1.02,7.85,.92,11.76-.18,6.71-3.56,8.55-9.69,5.5-2.06-1.03-4.34-2.13-5.76-3.83-10.06-12.08-20.39-23.97-29.64-36.65-4.9-6.72-3.4-9.29,4.76-12.05,5.47-1.85,11.17-3.11,16.83-4.34,8.72-1.89,8.75-1.79,6.98-10.58-10.15,1.08-20.24,2.73-30.37,3.06-9.52,.31-18.33-2.92-25.43-9.59-5.99-5.63-6.37-12.16-1.53-19.44,4.8-7.21,14.54-11.44,20.66-8.96,4.91,1.98,7.43,8.32,4.86,14.24-1.91,4.4-4.92,8.31-7.99,13.35Zm19.54,26.76c7.6,9.96,13.96,18.29,20.31,26.62l1.43-.79c-.41-9.12-.82-18.23-1.27-28.16-6.62,.76-12.49,1.43-20.47,2.34Zm-27.47-35.6c6.79-4.53,7.4-8.36,2.01-13.51-.67,4.5-1.34,9.01-2.01,13.51Z"/><path class="b" d="M290.37,946.61c-1.42,1.29-2.64,3.3-4.28,3.75-18,4.91-41.65-4.04-47.29-25.49-11.34-43.08-3.49-82.01,23.7-116.92,9.18-11.79,16.84-14.17,25.46-9.91,11.2,5.54,8.8,15.94,7.5,25.09-4.96,34.84-19.68,65.46-42.14,92.35-3.49,4.18-3.53,7.45-1.5,11.84,6.11,13.24,17.49,19.7,31.96,17.94,1.78-.22,3.58-.28,5.37-.41l1.24,1.76Zm-43.87-38.32l1.79,.66c1.76-2.04,3.62-4,5.27-6.13,16.47-21.18,25.44-45.6,30.15-71.64,1.38-7.64,1.54-15.7,.9-23.45-.54-6.44-5.38-7.86-9.46-2.82-5.49,6.77-11,13.92-14.56,21.79-7.77,17.17-12.6,35.38-13.98,54.26-.66,9.07-.11,18.22-.11,27.34Z"/><path class="b" d="M1852.82,932.55c-2.62-6.02-6-10.59-6.4-15.41-.68-8.19,6.28-13.11,11.33-18.32,3.69-3.81,11.38,.51,12.13,6.74,.35,2.89-.11,6.07-1,8.86-1.83,5.76-1.12,10.15,4.15,13.98,4.28,3.11,8.09,7,11.66,10.95,4.4,4.86,5.9,10.47,2.28,16.58-3.77,6.38-10.36,9.66-17.03,8.11-3.36-.78-6.73-1.98-9.76-3.62-1.65-.9-2.58-3.12-3.83-4.75,1.96-1.33,3.94-3.73,5.89-3.72,2.82,.02,5.56,2.26,8.46,2.69,2.08,.31,5.75-.19,6.25-1.38,.88-2.06,.82-5.82-.55-7.28-3.12-3.33-7.11-5.98-11.09-8.32-1.31-.78-3.99-.34-5.48,.52-2.78,1.61-5,4.16-7.74,5.87-1.62,1.01-4.47,2.24-5.57,1.53-8.9-5.75-17-.95-25.14,1.61-7.02,2.21-13.61,5.99-20.72,7.7-8.8,2.12-13.97-1.38-16.4-7.75-15.31-.84-29.86-.96-44.22-2.72-7.38-.9-14.85-3.97-19.13-11.28-3.6-6.16-2.94-12.37,1.21-17.58,3.74-4.69,9.18-7.21,16.13-7.09-.5,1.68-.68,2.78-1.14,3.75-5.81,12.15-1.12,23.06,11.9,27.22,15.33,4.9,29.8,2.59,43.24-5.99,7.65-4.89,15.96-6.47,24.65-4.99,2.78,.47,5.55,3.01,7.63,5.26,6.97,7.53,24.75,5.77,28.27-1.15Zm-38.58,12.55l-.48-3.13c-3.2-1.7-6.34-3.56-9.64-5.04-1.47-.66-4.24-1.31-4.74-.66-1.26,1.62-2.71,4.59-2,5.91,1.35,2.53,4.02,5.82,6.37,6,3.39,.27,6.99-1.94,10.49-3.09Z"/><path class="b" d="M1048.31,940.87c15.53,11.06,30.06,3.75,46.39-2.35-3.83-1.93-6.62-3.41-9.49-4.72-.8-.36-1.88-.06-2.75-.33-3.73-1.17-9.99-.71-8.93-6.1,.51-2.6,6.66-5.53,10.42-5.77,7.96-.51,11.36,5.94,14.23,12.25,3.28,7.21,7.69,8.21,11.15,1.33,6.82-13.54,17.08-14.42,29.6-10.63,2.85,.86,5.82,1.35,9.47,3.87-1.87,.98-4.03,3.11-5.57,2.73-7.73-1.9-11.45,2.52-13.88,8.43-3.48,8.47-9.86,11.47-18.53,11.98-7.17,.42-12.29-1.66-14.45-7.82-19.19,7.13-38.01,12.28-57.48,2.31-6.45-3.3-12.14-8.2-10.51-16.29,1.61-7.97,5.8-15.03,14.96-16.15,3.75-.46,9.5-.2,11.2,2.07,2.3,3.07,2.77,8.69,1.8,12.67-1.03,4.24-4.66,7.85-7.64,12.51Zm-.65-23.12c-7.6,4.3-8.19,6.76-3.75,15.16,1.11-4.47,2.21-8.95,3.75-15.16Z"/><path class="b" d="M1221.75,942.86c-1.41,1.47-2.61,3.87-4.27,4.26-10.52,2.42-21.01,2.84-31.44-1.06-2.74-1.02-6.04-.82-9.07-.72-6.84,.23-13.7,1.37-20.48,.98-6.91-.39-8.3-5.53-7.36-11.59,1.88-12.03,12.66-20.59,27.82-21.71,3.41-.25,6.9,.32,10.34,.69,5.25,.57,8.16,3.72,7.63,8.86-2.02,19.67,5.91,21.29,23.08,18.63,.66-.1,1.34-.01,2.01-.01l1.73,1.66Zm-38.87-20.25c-7.28-6.56-16.01-2.82-18.86,9.13-.61,2.54,1.76,5.8,2.76,8.72,2.84-1.4,6.52-2.11,8.34-4.34,3.09-3.78,5-8.52,7.76-13.51Z"/><path class="b" d="M456.6,942.95c-1.47,1.45-2.92,4.14-4.41,4.16-9.84,.13-19.81,.53-29.48-.92-4.59-.69-8.57-1.18-13.25-.44-6.47,1.02-13.31,.91-19.8-.05-2.17-.32-5.03-4.59-5.34-7.31-.98-8.63,3.35-15.33,10.44-19.82,8.33-5.27,17.59-6.75,27.4-4.95,5.53,1.01,8.45,4.24,7.87,9.59-1.93,17.69,3.84,20.81,22.22,18.12,.87-.13,1.76-.16,2.64-.23,.57,.62,1.14,1.24,1.7,1.85Zm-58.51-6.87c.81,.87,2.42,4.05,4.23,4.18,2.42,.16,5.68-1.46,7.35-3.39,2.62-3.01,3.75-7.32,6.36-10.34,3.51-4.06,1.59-5.69-2.17-6.79-7.13-2.09-15.53,5.75-15.77,16.34Z"/><path class="b" d="M1605.5,940.87c7.55,6.85,16.91,6.47,26.32,4.66,4.03-.77,7.76-2.97,11.72-4.23,2.18-.69,4.54-.79,6.82-1.15,.32,.64,.64,1.28,.96,1.91-1.48,1.36-2.73,3.41-4.47,3.99-14.68,4.86-29.57,7.84-44.91,2.99-1.98-.62-3.91-1.47-5.75-2.43-8.84-4.64-12.36-10.03-11.36-17.21,1.07-7.71,8.22-14.83,16.51-16.45,9.05-1.76,15.27,4.83,12.15,13.59-1.74,4.88-5.05,9.19-7.97,14.32Zm-8.35-9.24l2.63,.6c3.62-3.89,4.94-8.21,2.85-13.15l-3.01-.58c-.82,4.38-1.64,8.75-2.47,13.13Z"/><path class="b" d="M738.05,934.71c-2.52,2.41-3.68,4.25-5.3,4.9-2.98,1.19-6.2,2-9.39,2.4-12.22,1.51-23.94,4.02-35.09,9.94-5.08,2.7-12.17,3.21-18.05,2.44-8.53-1.12-10.88-8.66-5.96-15.67,5.76-8.19,22.75-13.51,32.18-10.04,.86,.32,1.94,.64,2.41,1.32,8.82,12.85,20.66,7.75,32.03,5.43,1.36-.28,2.67-.76,4.01-1.12,.19-.05,.42,.04,3.18,.4Zm-46.33,10.25c-.11-.87-.23-1.75-.34-2.62-3.32-1.87-6.57-3.91-10.01-5.54-1.41-.67-3.99-1.18-4.74-.45-1.28,1.26-2.65,4.23-2.01,5.28,1.62,2.67,4.16,6.25,6.67,6.55,3.3,.39,6.93-2.02,10.42-3.22Z"/><path class="b" d="M1025.21,953.74c-1.01,5.46-3.99,8.3-9.79,8.4-5.89,.11-9.42-2.75-10.07-8.3-.58-4.95-.12-10.03-.12-15.75-2.98,.41-5.37,.76-7.77,1.07-7.2,.93-11.43-3.33-9.92-10.45,.71-3.35,2.11-6.63,3.7-9.68,.72-1.39,2.67-2.98,4-2.94,1.08,.04,2.93,2.38,2.96,3.74,.16,7.32,2.81,9.12,9.89,6.35,4.41-1.73,7.58,.89,7.32,6.16-.08,1.62-.26,3.23-.38,4.84q-.91,12.42,10.17,16.55Z"/><path class="b" d="M1665.72,937.92c-2.82,.47-5.03,.89-7.25,1.21-7.42,1.09-11.9-3.43-10.27-10.79,.74-3.34,2.22-6.6,3.88-9.62,.73-1.32,3.03-2.89,4.11-2.58,1.27,.36,2.84,2.67,2.8,4.09-.18,7.49,2.65,8.64,9.36,5.99,4.11-1.62,7.91,.22,7.63,5.78-.16,3.24-.61,6.46-.84,9.69-.4,5.55,.19,10.29,7.5,10.65,4.04,.19,4.17,3.4,1.79,5.09-3.09,2.21-7.33,4.55-10.69,4.08-2.87-.4-5.82-4.35-7.53-7.4-1.21-2.15-.43-5.42-.48-8.19-.05-2.46,0-4.93,0-8.01Z"/><path class="b" d="M1722.4,953.56c-.77,5.62-3.94,8.34-9.61,8.56-6.27,.24-9.66-3.05-10.25-8.89-.48-4.75-.1-9.59-.1-15.13-2.84,.4-5.23,.75-7.63,1.07-7,.94-11.35-2.94-10.14-9.71,.68-3.79,2.39-7.48,4.18-10.95,.66-1.28,2.82-2.3,4.37-2.39,.74-.04,2.33,2.34,2.33,3.63,.05,7.24,2.52,9.39,9.77,6.48,4.25-1.71,7.75,.46,7.4,5.96-.13,2.08-.28,4.15-.44,6.23-.86,11.67-.81,11.74,10.12,15.14Z"/><path class="b" d="M658.13,953.52c-1.26,6.44-4.97,8.87-10.91,8.58-6.01-.29-8.74-3.86-9.11-9.34-.32-4.75-.07-9.53-.07-14.81-3.21,.51-5.66,.96-8.12,1.27-6.63,.84-10.71-2.83-9.64-9.49,.64-4,2.6-7.86,4.39-11.58,.54-1.12,2.68-2.3,3.8-2.07,1.11,.23,2.65,2.23,2.62,3.42-.17,7.93,2.87,9.43,10.14,6.59,3.89-1.52,7.22,.82,6.97,5.85-.11,2.31-.17,4.63-.36,6.93-.94,11.02-.57,11.6,10.28,14.65Z"/><path class="b" d="M1717.46,897.2c7.12-3.58,12.85-6.46,18.59-9.32,7.67-3.83,15.2-8,23.09-11.3,3.61-1.51,8.06-2.16,11.92-1.66,4.75,.61,5.5,4.4,2.32,8.15-8.95,10.55-40.41,19.11-55.92,14.14Z"/><path class="b" d="M1079.38,894.3c-3.2,1.17-5.66,2.23-8.21,2.96-8.84,2.5-17.72,4.88-26.57,7.33-1.77,.49-3.54,1.61-5.26,1.51-1.58-.08-3.9-1.08-4.39-2.29-.45-1.1,.7-3.96,1.83-4.44,9.74-4.19,19.47-8.52,29.55-11.72,4.56-1.45,9.6,.25,13.06,6.65Z"/><path class="b" d="M366.33,845.63c-1.91,4.93-.74,10.25-7.26,9.82-4.57-.3-10.31,.19-9.91-7.41,.24-4.47,6.97-12.57,10.85-11.16,2.8,1.02,4.26,5.7,6.32,8.75Z"/></g></svg>