<?xml version="1.0" standalone="no"?>
<!DOCTYPE svg PUBLIC "-//W3C//DTD SVG 20010904//EN"
 "http://www.w3.org/TR/2001/REC-SVG-20010904/DTD/svg10.dtd">
<svg version="1.0" xmlns="http://www.w3.org/2000/svg"
 width="1920.000000pt" height="1920.000000pt" viewBox="0 0 1920.000000 1920.000000"
 preserveAspectRatio="xMidYMid meet">
<metadata>
Created by potrace 1.14, written by Peter Selinger 2001-2017
</metadata>
<g transform="translate(0.000000,1920.000000) scale(0.100000,-0.100000)"
fill="#000000" stroke="none">
<path d="M8745 14449 c-81 -28 -391 -189 -551 -285 -205 -123 -494 -321 -619
-425 -11 -9 -63 -52 -115 -95 -239 -196 -530 -481 -785 -768 -41 -46 -181
-202 -185 -206 -3 -3 -36 -41 -75 -85 -38 -44 -72 -82 -75 -85 -3 -3 -57 -63
-119 -135 -63 -71 -122 -137 -130 -146 -9 -9 -27 -29 -40 -45 -34 -40 -218
-250 -262 -299 -20 -22 -103 -116 -184 -210 -81 -93 -159 -183 -174 -200 -68
-77 -186 -213 -210 -240 -76 -88 -157 -181 -166 -191 -5 -6 -35 -39 -65 -75
-30 -35 -77 -88 -105 -119 -27 -31 -77 -87 -111 -125 -34 -39 -81 -92 -105
-120 -24 -27 -58 -65 -74 -84 -17 -19 -37 -41 -45 -50 -9 -9 -49 -54 -90 -100
-41 -47 -82 -92 -90 -101 -293 -316 -580 -605 -776 -780 -156 -140 -301 -265
-339 -292 -5 -4 -26 -20 -45 -36 -29 -24 -92 -73 -260 -200 -95 -72 -399 -270
-530 -345 -148 -86 -401 -213 -570 -287 -91 -40 -183 -80 -205 -90 -98 -44
-798 -319 -855 -336 -40 -12 -143 -6 -183 11 -48 20 -102 68 -141 125 -52 77
-111 139 -124 131 -9 -6 -3 -31 23 -99 19 -50 35 -94 35 -96 0 -3 -26 -22 -57
-42 -148 -93 -227 -217 -225 -353 3 -119 73 -226 179 -274 79 -35 152 -45 317
-42 112 2 165 8 256 30 63 15 122 28 130 30 29 6 255 66 285 75 17 5 62 19
100 31 191 59 468 157 560 199 11 5 70 30 130 55 149 63 454 217 595 300 63
37 130 76 148 86 126 73 393 267 569 416 325 273 686 653 1017 1068 48 61 95
119 104 130 27 32 477 606 592 755 57 74 107 137 110 140 3 3 46 57 95 120 97
126 538 680 572 720 30 35 281 337 323 389 19 23 44 53 55 65 11 12 43 49 70
81 48 57 65 76 185 214 84 97 84 97 150 171 204 228 326 357 550 580 222 223
296 293 439 420 41 36 79 70 85 75 6 6 67 57 135 114 111 92 183 148 431 329
41 31 81 60 89 66 12 9 13 3 7 -44 -4 -30 -9 -68 -11 -85 -3 -16 -7 -52 -11
-80 -12 -84 -13 -98 -19 -155 -3 -30 -8 -66 -10 -80 -5 -27 -10 -67 -20 -170
-9 -101 -16 -162 -20 -200 -2 -19 -7 -75 -10 -125 -3 -49 -8 -106 -10 -125 -3
-19 -7 -73 -10 -120 -3 -47 -8 -105 -10 -130 -5 -59 -14 -217 -29 -540 -6
-119 -13 -294 -21 -555 -7 -258 -22 -1164 -25 -1617 l-1 -207 -48 -10 c-67
-14 -233 -40 -301 -46 -19 -2 -69 -8 -110 -14 -76 -11 -116 -17 -192 -26 -24
-3 -54 -8 -68 -10 -14 -3 -50 -7 -80 -10 -30 -3 -66 -8 -80 -10 -14 -2 -45 -7
-70 -10 -120 -15 -178 -28 -229 -53 -63 -31 -146 -107 -184 -168 -60 -97 -70
-218 -25 -295 35 -59 48 -70 224 -191 83 -56 168 -116 189 -133 284 -222 515
-463 793 -825 78 -102 279 -423 361 -575 81 -152 195 -212 304 -160 89 42 195
194 213 305 13 78 8 276 -11 391 -2 13 -6 61 -10 107 -3 45 -8 99 -10 120 -2
20 -7 71 -10 112 -3 41 -8 98 -10 125 -3 28 -7 82 -10 120 -5 69 -12 171 -20
270 -2 28 -7 93 -10 145 -4 52 -8 111 -10 130 -2 19 -7 88 -10 153 -7 115 -7
118 18 151 16 20 43 39 69 48 24 8 143 49 266 91 122 42 242 87 266 99 55 29
100 84 122 151 9 29 20 56 25 62 5 5 9 16 9 25 0 19 -130 70 -191 74 -48 3
-272 -15 -359 -29 -24 -4 -53 -7 -167 -20 -27 -3 -56 -8 -65 -11 -11 -3 -18 0
-19 8 0 7 -3 22 -5 33 -12 53 4 1645 21 2010 2 55 7 163 10 240 3 77 8 172 10
210 3 39 7 104 10 145 8 136 21 289 30 370 2 19 7 64 10 100 3 36 15 135 27
220 11 85 21 164 22 175 8 71 50 329 71 435 3 14 8 39 11 55 4 26 32 158 79
373 16 76 13 168 -8 208 -55 106 -170 147 -292 103z m-541 -5394 c3 -49 9
-139 12 -200 3 -60 7 -120 9 -132 2 -13 2 -23 0 -23 -3 0 -86 80 -285 274
l-71 69 152 58 c83 32 154 61 157 64 12 12 20 -22 26 -110z"/>
<path d="M10275 14455 c-49 -17 -102 -75 -116 -129 -17 -60 -15 -152 4 -226 9
-36 19 -85 22 -110 3 -25 10 -67 15 -95 6 -27 12 -63 14 -80 2 -16 8 -57 14
-90 6 -33 14 -73 16 -90 3 -16 12 -73 21 -125 9 -52 18 -108 21 -125 2 -16 9
-55 14 -85 5 -30 12 -73 15 -94 3 -21 7 -48 10 -60 2 -12 7 -43 10 -71 3 -27
8 -59 10 -70 5 -23 12 -85 20 -170 3 -33 8 -71 10 -85 4 -23 13 -154 20 -285
26 -515 38 -883 50 -1595 4 -184 8 -400 10 -480 5 -174 6 -531 2 -580 l-3 -35
-64 1 c-63 1 -112 6 -235 24 -106 16 -218 25 -310 25 -78 0 -96 -3 -135 -25
-41 -23 -45 -29 -48 -68 -5 -70 33 -140 101 -185 30 -20 68 -41 83 -47 16 -6
39 -15 50 -21 12 -6 145 -52 295 -103 240 -80 274 -93 273 -111 -2 -31 -13
-155 -18 -205 -3 -25 -10 -97 -16 -160 -6 -63 -13 -131 -15 -150 -2 -19 -7
-69 -11 -110 -3 -41 -8 -88 -9 -105 -2 -16 -6 -64 -9 -105 -4 -41 -9 -91 -11
-110 -2 -19 -7 -71 -10 -115 -3 -43 -8 -93 -10 -110 -2 -16 -7 -66 -10 -110
-3 -44 -8 -100 -10 -125 -18 -195 -20 -259 -12 -335 25 -225 148 -399 283
-398 106 1 183 76 289 279 78 151 335 522 500 721 93 112 355 381 460 471 85
72 267 208 382 284 117 78 134 95 169 173 58 126 26 246 -96 363 -86 84 -149
106 -345 127 -27 3 -61 7 -75 10 -14 2 -49 7 -79 10 -30 4 -61 8 -70 10 -9 1
-41 6 -71 10 -30 4 -62 9 -71 10 -9 2 -40 6 -69 10 -29 4 -60 8 -69 10 -9 1
-41 6 -71 10 -30 4 -64 9 -75 11 -11 2 -40 7 -65 10 -25 3 -56 7 -70 10 -14 2
-45 7 -70 10 -25 3 -63 9 -85 13 l-40 7 -1 909 c0 929 -5 1183 -29 1605 -15
267 -24 411 -30 483 -3 26 -7 89 -10 140 -3 51 -7 112 -10 137 -2 25 -7 83
-10 130 -3 47 -8 112 -11 145 -2 33 -6 85 -9 115 -2 30 -7 96 -10 145 -3 50
-8 113 -10 140 -2 28 -7 93 -11 145 -3 52 -8 98 -10 102 -8 13 15 18 28 6 7
-7 65 -51 128 -98 236 -174 430 -331 600 -486 158 -143 206 -188 298 -278 109
-107 304 -303 368 -372 201 -213 210 -223 341 -372 48 -53 89 -99 92 -102 6
-5 98 -112 142 -164 13 -16 35 -41 49 -56 14 -14 42 -47 63 -73 21 -25 44 -52
50 -59 7 -7 69 -80 137 -163 69 -82 127 -152 130 -155 3 -3 25 -30 50 -60 25
-30 55 -66 67 -80 22 -26 323 -397 373 -460 15 -19 65 -82 111 -140 85 -105
303 -382 370 -469 40 -52 387 -498 406 -521 6 -8 69 -89 140 -180 70 -91 139
-178 154 -195 15 -16 55 -64 89 -105 214 -258 561 -599 830 -816 531 -428
1082 -738 1715 -966 280 -100 639 -199 780 -213 22 -3 51 -7 65 -9 14 -3 66
-8 115 -12 287 -21 363 -20 421 6 114 50 192 189 182 323 -9 112 -53 176 -200
296 -43 35 -78 65 -78 66 0 2 9 33 21 70 11 36 19 71 17 76 -5 16 -84 -42
-102 -76 -63 -116 -203 -178 -333 -146 -158 38 -522 161 -668 225 -16 7 -61
26 -100 41 -38 16 -74 32 -79 37 -6 4 -15 8 -22 8 -27 0 -468 217 -628 309
-49 28 -90 51 -92 51 -1 0 -39 23 -84 50 -45 28 -84 50 -86 50 -3 0 -10 5 -17
10 -7 6 -75 51 -152 102 -471 308 -852 639 -1355 1177 -161 173 -135 144 -340
366 -25 28 -98 106 -160 175 -63 69 -131 143 -151 165 -21 22 -47 51 -59 65
-32 37 -142 160 -165 184 -11 12 -54 60 -95 106 -41 47 -79 90 -85 96 -17 19
-136 152 -155 174 -20 23 -139 157 -155 174 -6 6 -78 88 -160 181 -82 94 -166
188 -186 210 -20 22 -50 56 -65 75 -16 19 -38 44 -49 56 -11 11 -45 49 -75 84
-30 34 -66 75 -80 90 -38 41 -78 87 -150 170 -36 41 -70 79 -76 85 -6 5 -44
48 -85 95 -41 46 -78 90 -84 96 -491 544 -888 922 -1266 1204 -121 91 -363
253 -462 311 -32 19 -66 39 -75 44 -56 33 -277 153 -392 212 -180 93 -241 108
-325 78z m915 -5355 c90 -33 165 -60 168 -60 2 0 -9 -13 -25 -29 -29 -30 -236
-249 -311 -330 l-43 -46 5 105 c9 156 19 329 25 408 1 6 5 12 9 12 5 0 82 -27
172 -60z"/>
</g>
</svg>
